HIERARCHY
ROOT Hips
{
	OFFSET 28.832817 438.721039 9.089394
	CHANNELS 6 Xposition Yposition Zposition Zrotation Xrotation Yrotation
	JOINT Chest
	{
		OFFSET -1.534996 78.524017 -11.631012
		CHANNELS 6 Xposition Yposition Zposition Zrotation Xrotation Yrotation
		JOINT Chest2
		{
			OFFSET 0.000000 33.432999 0.000000
			CHANNELS 6 Xposition Yposition Zposition Zrotation Xrotation Yrotation
			JOINT Neck
			{
				OFFSET 0.000000 77.854996 0.000038
				CHANNELS 6 Xposition Yposition Zposition Zrotation Xrotation Yrotation
				JOINT Head
				{
					OFFSET 0.000000 21.739006 0.000000
					CHANNELS 6 Xposition Yposition Zposition Zrotation Xrotation Yrotation
					End Site
					{
						OFFSET 0.000000 105.281982 0.000000
					}
				}
			}
			JOINT LeftCollar
			{
				OFFSET 26.763000 49.383011 16.524048
				CHANNELS 6 Xposition Yposition Zposition Zrotation Xrotation Yrotation
				JOINT LeftShoulder
				{
					OFFSET 42.989998 0.000000 0.000000
					CHANNELS 6 Xposition Yposition Zposition Zrotation Xrotation Yrotation
					JOINT LeftElbow
					{
						OFFSET 0.000000 -102.451019 -0.000038
						CHANNELS 6 Xposition Yposition Zposition Zrotation Xrotation Yrotation
						JOINT LeftWrist
						{
							OFFSET 0.000000 -127.033005 0.000038
							CHANNELS 6 Xposition Yposition Zposition Zrotation Xrotation Yrotation
							End Site
							{
								OFFSET 0.000000 -21.739006 -0.000038
							}
						}
					}
				}
			}
			JOINT RightCollar
			{
				OFFSET -25.345993 51.949997 16.864052
				CHANNELS 6 Xposition Yposition Zposition Zrotation Xrotation Yrotation
				JOINT RightShoulder
				{
					OFFSET -41.441002 0.000000 0.000000
					CHANNELS 6 Xposition Yposition Zposition Zrotation Xrotation Yrotation
					JOINT RightElbow
					{
						OFFSET 0.000000 -101.165009 -0.000038
						CHANNELS 6 Xposition Yposition Zposition Zrotation Xrotation Yrotation
						JOINT RightWrist
						{
							OFFSET 0.000000 -129.378021 0.000038
							CHANNELS 6 Xposition Yposition Zposition Zrotation Xrotation Yrotation
							End Site
							{
								OFFSET 0.000000 -21.739006 -0.000038
							}
						}
					}
				}
			}
		}
	}
	JOINT LeftHip
	{
		OFFSET 21.755981 -26.628990 -0.644951
		CHANNELS 6 Xposition Yposition Zposition Zrotation Xrotation Yrotation
		JOINT LeftKnee
		{
			OFFSET 0.000000 -185.857986 -0.000038
			CHANNELS 6 Xposition Yposition Zposition Zrotation Xrotation Yrotation
			JOINT LeftAnkle
			{
				OFFSET 0.000000 -189.794998 -0.000038
				CHANNELS 6 Xposition Yposition Zposition Zrotation Xrotation Yrotation
				End Site
				{
					OFFSET 0.000000 -0.000012 92.639999
				}
			}
		}
	}
	JOINT RightHip
	{
		OFFSET -20.923996 -25.811996 0.581055
		CHANNELS 6 Xposition Yposition Zposition Zrotation Xrotation Yrotation
		JOINT RightKnee
		{
			OFFSET 0.000000 -186.649994 -0.000038
			CHANNELS 6 Xposition Yposition Zposition Zrotation Xrotation Yrotation
			JOINT RightAnkle
			{
				OFFSET 0.000000 -185.666016 -0.000038
				CHANNELS 6 Xposition Yposition Zposition Zrotation Xrotation Yrotation
				End Site
				{
					OFFSET 0.000000 -0.000010 84.976006
				}
			}
		}
	}
}
MOTION
Frames: 5
Frame Time: 0.041667
9.141482 198.769608 306.142914 -38.586283 28.559002 59.894407 -1.535002 78.524033 -11.630999 3.551746 37.797932 -6.721825 -0.000018 33.432980 0.000012 0.244510 -10.359043 1.859033 -0.000065 77.855064 0.000000 -2.741670 5.224719 3.697419 -0.000017 21.739025 0.000034 2.534372 -1.559286 -1.185212 26.762955 49.383007 16.524014 -3.292952 1.522326 -0.466184 42.989994 0.000002 0.000006 70.780861 -54.580889 -17.418425 0.000072 -102.450935 -0.000050 -2.199454 -20.603541 8.531103 0.000001 -127.033066 0.000005 -94.509819 -148.383920 12.610175 -25.346058 51.950005 16.864012 -1.640172 15.699979 17.940424 -41.440941 -0.000058 -0.000075 -90.191630 -40.491339 -10.139076 0.000006 -101.164917 -0.000104 3.110415 -26.987462 -54.201099 0.000010 -129.378006 0.000023 14.689973 4.061855 79.219983 21.755966 -26.629021 -0.644943 -20.187579 -140.894003 30.066250 -0.000037 -185.858017 0.000007 -38.610011 149.165389 -9.488852 0.000010 -189.795013 -0.000041 -1.446243 -20.861098 38.093061 -20.924025 -25.811968 0.581009 18.262652 -143.233998 -37.660772 0.000013 -186.650101 -0.000064 43.087166 177.892359 18.608021 -0.000026 -185.665970 -0.000089 29.339242 -73.062213 -20.613142 
10.003514 193.900116 310.829193 -38.017243 27.439807 60.344735 -1.534988 78.524055 -11.631016 4.689947 38.340075 -6.926572 -0.000004 33.432995 0.000042 0.244108 -10.200543 1.888457 0.000020 77.855011 0.000045 -2.603219 5.962787 3.678399 -0.000008 21.738970 0.000006 2.453144 -2.234153 -1.374349 26.763020 49.383015 16.524029 -2.312315 1.720906 1.622934 42.990028 -0.000014 -0.000020 68.679608 -56.105995 -17.926875 0.000005 -102.451080 -0.000062 -3.140261 -21.348610 5.994413 -0.000032 -127.032990 0.000066 -95.233935 -149.720684 13.976420 -25.346001 51.950012 16.864052 -1.674910 13.424476 16.173857 -41.440994 -0.000013 -0.000064 -86.444151 -40.808949 -7.410199 0.000025 -101.164902 -0.000066 4.546233 -27.951492 -50.568146 0.000004 -129.377975 0.000035 16.088844 -8.940822 98.358453 21.755993 -26.629059 -0.644925 -20.437396 -141.293419 30.051422 -0.000048 -185.858078 -0.000018 -37.346470 151.290630 -11.052831 -0.000006 -189.794998 -0.000060 -1.119021 -21.613034 37.979438 -20.923960 -25.812038 0.581021 19.423591 -142.883282 -37.203764 0.000019 -186.650101 -0.000057 40.577409 179.027113 18.863924 0.000008 -185.666031 -0.000080 26.953764 -73.606005 -21.683904 
9.593479 198.321808 313.059509 -37.260864 26.371639 60.213336 -1.534982 78.524048 -11.631021 5.077664 38.136679 -7.359396 -0.000032 33.433067 0.000024 0.243271 -10.176160 1.885020 0.000006 77.855042 0.000053 -1.740452 4.832761 3.678056 -0.000009 21.738968 0.000030 1.922662 -2.592710 -1.228429 26.762993 49.383018 16.524050 -2.352133 2.229648 0.410181 42.990036 0.000015 0.000004 68.761249 -57.633293 -18.735055 -0.000007 -102.450989 -0.000002 -3.483394 -17.106412 -0.457108 0.000038 -127.033012 0.000055 -127.263459 -170.689228 177.289349 -25.346016 51.949997 16.864059 -1.496183 13.098440 16.356442 -41.440960 0.000006 -0.000078 -86.452525 -44.278320 -6.084776 -0.000033 -101.164963 -0.000058 5.250296 -23.305587 -41.132465 -0.000026 -129.377960 0.000032 11.085869 -23.975781 87.015777 21.756004 -26.629000 -0.644941 -20.622296 -138.989883 29.732592 0.000031 -185.858002 0.000007 -38.895277 151.360339 -9.370205 0.000019 -189.794983 -0.000066 -1.251416 -21.803921 37.459913 -20.923954 -25.812017 0.581037 20.882293 -139.880020 -35.992829 0.000009 -186.650116 -0.000069 40.810674 177.791163 18.263784 0.000002 -185.666031 -0.000067 23.513256 -73.061714 -24.466861 
7.995777 211.595749 313.105865 -36.375614 25.554280 59.961575 -1.534982 78.524017 -11.631039 5.301243 37.439808 -7.525472 0.000033 33.432991 -0.000035 0.234285 -10.115738 1.828830 0.000054 77.855049 0.000028 -1.037963 1.412770 3.109423 -0.000033 21.739010 0.000006 1.536568 -3.129937 -0.914563 26.763027 49.383072 16.524040 -3.230983 4.221991 -2.580299 42.989902 -0.000001 -0.000002 72.686969 -59.686537 -16.502050 -0.000007 -102.451012 -0.000056 -3.277525 -12.010146 -10.533797 -0.000020 -127.032997 0.000059 -136.759949 -179.617255 182.708667 -25.345955 51.950027 16.864059 -1.853345 14.943571 18.399910 -41.440979 0.000027 -0.000064 -89.833059 -47.800652 -7.903854 -0.000011 -101.164925 -0.000105 5.125641 -16.786279 -23.115235 -0.000029 -129.377991 0.000049 -2.661839 -27.669511 61.144086 21.755974 -26.629082 -0.644999 -20.381891 -134.035427 29.650510 -0.000024 -185.858017 0.000005 -43.205147 149.769342 -5.724486 0.000003 -189.794998 -0.000080 -1.410011 -22.169995 37.542541 -20.923973 -25.812056 0.581015 22.250929 -134.594834 -34.622359 0.000058 -186.649994 -0.000064 43.807338 175.321421 16.496768 -0.000014 -185.665985 -0.000083 22.211505 -73.123411 -25.525865 
5.709321 230.735779 311.682922 -34.658859 24.238697 59.250190 -1.535037 78.524071 -11.631026 5.875551 36.728902 -7.294878 -0.000001 33.433098 -0.000032 0.214825 -10.111503 1.699409 -0.000043 77.855042 0.000043 -1.431668 -2.250373 1.318203 0.000035 21.739035 0.000018 1.859935 -3.792463 0.079039 26.762947 49.382973 16.524065 -2.972042 5.288584 -4.449674 42.989964 -0.000035 -0.000039 74.825617 -62.883004 -14.499266 -0.000038 -102.450981 -0.000035 -3.083332 -9.253660 -21.184354 -0.000025 -127.033012 -0.000007 -158.360531 -185.252079 185.191645 -25.346035 51.950001 16.864079 -3.273441 15.555556 19.754951 -41.440983 -0.000057 -0.000013 -92.691459 -51.316868 -9.718170 0.000024 -101.164917 -0.000069 4.969187 -12.429044 -5.800755 -0.000043 -129.377914 0.000010 -9.559212 -19.895352 39.800865 21.755953 -26.629036 -0.644979 -20.956422 -126.785305 28.840884 -0.000006 -185.858002 -0.000022 -49.548067 147.559461 -0.906159 0.000019 -189.794998 -0.000070 -1.918206 -22.644505 37.979916 -20.924017 -25.811979 0.581028 24.663702 -127.084781 -32.218948 0.000053 -186.650055 -0.000046 48.768702 172.045963 13.530693 -0.000009 -185.666046 -0.000104 20.344495 -72.318275 -27.794145 
